<?xml version="1.0" standalone="no"?><!DOCTYPE svg PUBLIC "-//W3C//DTD SVG 1.1//EN" "http://www.w3.org/Graphics/SVG/1.1/DTD/svg11.dtd"><svg t="1653386719097" class="icon" viewBox="0 0 1024 1024" version="1.1" xmlns="http://www.w3.org/2000/svg" p-id="32209" xmlns:xlink="http://www.w3.org/1999/xlink" width="40" height="40"><defs><style type="text/css"></style></defs><path d="M514.133333 851.2c-6.4 0-10.666667-4.266667-10.666666-10.666667v-206.933333c0-6.4 4.266667-10.666667 10.666666-10.666667s10.666667 4.266667 10.666667 10.666667v206.933333c0 6.4-4.266667 10.666667-10.666667 10.666667z" fill="#0e932e" p-id="32210"></path><path d="M631.466667 748.8c-2.133333 0-6.4-2.133333-8.533334-4.266667l-108.8-115.2L405.333333 746.666667c-4.266667 4.266667-10.666667 4.266667-14.933333 0-4.266667-4.266667-4.266667-10.666667 0-14.933334l117.333333-123.733333c4.266667-4.266667 10.666667-4.266667 14.933334 0l117.333333 123.733333c4.266667 4.266667 4.266667 10.666667 0 14.933334-2.133333 2.133333-6.4 2.133333-8.533333 2.133333zM514.133333 398.933333c-6.4 0-10.666667-4.266667-10.666666-10.666666V183.466667c0-6.4 4.266667-10.666667 10.666666-10.666667s10.666667 4.266667 10.666667 10.666667v206.933333c0 4.266667-4.266667 8.533333-10.666667 8.533333z" fill="#0e932e" p-id="32211"></path><path d="M514.133333 420.266667c-2.133333 0-6.4-2.133333-8.533333-4.266667l-117.333333-123.733333c-4.266667-4.266667-4.266667-10.666667 0-14.933334 4.266667-4.266667 10.666667-4.266667 14.933333 0l108.8 115.2 108.8-115.2c4.266667-4.266667 10.666667-4.266667 14.933333 0 4.266667 4.266667 4.266667 10.666667 0 14.933334l-117.333333 123.733333c2.133333 2.133333 0 4.266667-4.266667 4.266667z" fill="#0e932e" p-id="32212"></path><path d="M844.8 522.666667H640c-6.4 0-10.666667-4.266667-10.666667-10.666667s4.266667-10.666667 10.666667-10.666667h206.933333c6.4 0 10.666667 4.266667 10.666667 10.666667s-6.4 10.666667-12.8 10.666667z" fill="#0e932e" p-id="32213"></path><path d="M742.4 640c-2.133333 0-6.4-2.133333-8.533333-4.266667-4.266667-4.266667-4.266667-10.666667 0-14.933333l115.2-108.8-115.2-108.8c-4.266667-4.266667-4.266667-10.666667 0-14.933333 4.266667-4.266667 10.666667-4.266667 14.933333 0l123.733333 117.333333c2.133333 2.133333 4.266667 4.266667 4.266667 8.533333s-2.133333 6.4-4.266667 8.533334L748.8 640c-2.133333-2.133333-4.266667 0-6.4 0zM390.4 522.666667H183.466667c-6.4 0-10.666667-4.266667-10.666667-10.666667s4.266667-10.666667 10.666667-10.666667h206.933333c6.4 0 10.666667 4.266667 10.666667 10.666667s-4.266667 10.666667-10.666667 10.666667z" fill="#0e932e" p-id="32214"></path><path d="M288 640c-2.133333 0-4.266667 0-6.4-2.133333l-123.733333-117.333334c-2.133333-2.133333-4.266667-4.266667-4.266667-8.533333s2.133333-6.4 4.266667-8.533333l123.733333-117.333334c4.266667-4.266667 10.666667-4.266667 14.933333 0 4.266667 4.266667 4.266667 10.666667 0 14.933334L179.2 512l115.2 108.8c4.266667 4.266667 4.266667 10.666667 0 14.933333 0 2.133333-4.266667 4.266667-6.4 4.266667z" fill="#0e932e" p-id="32215"></path><path d="M514.133333 981.333333c-258.133333 0-469.333333-211.2-469.333333-469.333333S256 42.666667 514.133333 42.666667s469.333333 211.2 469.333334 469.333333-209.066667 469.333333-469.333334 469.333333z m0-917.333333c-247.466667 0-448 200.533333-448 448s200.533333 448 448 448 448-200.533333 448-448-200.533333-448-448-448z" fill="#0e932e" p-id="32216"></path></svg>